<svg xmlns="http://www.w3.org/2000/svg" xmlns:xlink="http://www.w3.org/1999/xlink" data-name="Layer 1" width="999" height="797.25" style=""><rect id="backgroundrect" width="100%" height="100%" x="0" y="0" fill="none" stroke="none"/><defs><linearGradient id="c24143ca-a0c1-48a5-a3b5-0343775bf348" x1="0.4998474419116974" y1="0.9999033808708191" x2="0.4998474419116974" y2="0.00005167395283933729"><stop offset="0" stop-color="gray" stop-opacity="0.25"/><stop offset="0.54" stop-color="gray" stop-opacity="0.12"/><stop offset="1" stop-color="gray" stop-opacity="0.1"/></linearGradient></defs><title>press play</title><g class="currentLayer" style=""><title>Layer 1</title><path d="M361.21,11.270001068115235 c30.78,-27.43 79.11,-33 123.09,-30.84 c138.16,6.87 262.87,73.56 370.74,149 c39.05,27.31 77.5,56.74 102.85,94.35 c51.6,76.57 36.3,182.63 -35.46,245.7 c-24.41,21.46 -54,37.91 -84.39,52.5 c-54,25.93 -112.31,46.74 -173.62,52.67 c-43.73,4.22 -88,0.79 -131.46,-5.11 C411.5,553.0800010681153 292.31,516.6300010681152 192.4,454.35000106811526 c-43.82,-27.33 -85.13,-61.3 -103.19,-105.52 S82.71000000000001,248.63000106811523 127.5,222.43000106811525 c18.51,-10.82 40.64,-15.71 62.3,-20.3 c31.89,-6.76 64.29,-13.42 93.06,-27.15 c29.72,-14.19 64.92,-41.63 59,-73 C335.5,68.26000106811523 330.5,38.630001068115234 361.21,11.270001068115235 z" fill="#ceab4c" opacity="0.1" id="svg_1" class="" fill-opacity="1"/><circle cx="174.0800018310547" cy="129.39999389648438" r="31.5" fill="#ceab4c" opacity="0.1" id="svg_2" class="" fill-opacity="1"/><circle cx="108.08999633789062" cy="54.400001525878906" r="19.5" fill="#ceab4c" opacity="0.1" id="svg_3" class="" fill-opacity="1"/><circle cx="925.5700073242188" cy="114.4000015258789" r="12" fill="#ceab4c" opacity="0.1" id="svg_4" class="" fill-opacity="1"/><ellipse cx="689.9199829101562" cy="788.8499755859375" rx="84.23999786376953" ry="8.399999618530273" fill="#ceab4c" opacity="0.1" id="svg_5" class="" fill-opacity="1"/><polygon points="214 487.31 213.63 507.26 210.67 668.97 185.33 728.31 98 729.31 98 496.5 189.14 489.28 214 487.31" fill="#5f5d7e" id="svg_6"/><polygon points="214 487.31 213.63 507.26 210.67 668.97 185.33 728.31 98 729.31 98 496.5 189.14 489.28 214 487.31" opacity="0.1" id="svg_7"/><polygon points="214 487.31 213.63 507.26 210.67 668.97 185.33 728.31 192 507.64 191.98 507.5 189.14 489.28 214 487.31" fill="#5f5d7e" id="svg_8"/><polygon points="189.14 489.28 214 487.31 213.63 507.26 191.98 507.5 98 508.55 98 496.5 189.14 489.28" opacity="0.1" id="svg_9"/><polygon points="999 496.5 999 727.97 978.67 727.97 897.33 668.64 897.33 489.97 970 483.14 974.46 485.19 978.67 487.13 999 496.5" fill="#5f5d7e" id="svg_10"/><rect x="978.6699829101562" y="485.19000244140625" width="20.329999923706055" height="242.77999877929688" opacity="0.1" id="svg_11"/><polygon points="999 485.19 999 498.5 978.67 498.73 897.33 499.63 897.33 489.97 970 483.14 974.46 485.19 978.67 487.13 978.67 485.19 999 485.19" opacity="0.1" id="svg_12"/><polygon points="999 477.64 999 496.5 0 507.64 0 483.64 94 464.64 912 458.64 999 477.64" fill="#5f5d7e" id="svg_13"/><polygon points="999 477.64 999 496.5 0 507.64 0 483.64 999 477.64" opacity="0.1" id="svg_14"/><rect x="365.5" y="194.97000122070312" width="349.9200134277344" height="271.69000244140625" rx="22.81999969482422" ry="22.81999969482422" fill="#474157" id="svg_15"/><rect x="393.6600036621094" y="219.47999572753906" width="294.1199951171875" height="221.6300048828125" fill="#ededf4" id="svg_16" class=""/><circle cx="382.17999267578125" cy="330.2900085449219" r="4.820000171661377" fill="#e6e8ec" id="svg_17"/><circle cx="700.8099975585938" cy="330.80999755859375" r="7.949999809265137" fill="#e6e8ec" id="svg_18"/><path d="M803.88,509.1400010681152 a12.5,12.5 0 0 0 -1.13,-3.52 c0.7600000000000001,-2.59 1.25,-4.18 1.25,-4.18 s0,-0.38000000000000006 -0.12000000000000001,-1 a15.35,15.35 0 0 0 -15.55,-12.88 c-6,0.11000000000000001 -17.38,0.51 -30,1.9300000000000002 c0.7200000000000001,-5.05 1.58,-11.09 2.48,-17.31 l1.6500000000000001,0.18000000000000002 c0.38000000000000006,0 0.78,0 1.18,0.06000000000000001 h0.53 a5.44,5.44 0 0 0 3.66,-1.12 a2.16,2.16 0 0 0 -0.6700000000000002,-3.54 a8.92,8.92 0 0 0 7.83,-3.2800000000000002 a7,7 0 0 0 0,-8.14 c-2.11,-3 -6.58,-5 -6.82,-8.53 c-0.13,-2 1.21,-3.8 2.26,-5.57 a23.27,23.27 0 0 0 -3.67,-27.95 a54.76,54.76 0 0 0 -4.44,-3.95 c-2.2,-8.08 -4.5,-15.3 -5.18,-15.53 c-0.8800000000000001,-0.29000000000000004 -2.39,-2.19 -3.83,-3.8200000000000003 a18.4,18.4 0 0 0 -0.07,-4.13 c-1.06,-7 -8,-12 -11.82,-18.18 s-4.51,-13.75 -3.5300000000000002,-20.83 s3.45,-13.93 5.46,-20.84 c1.5,-5.13 2.75,-10.58 1.07,-15.67 c-1.19,-3.63 -3.7800000000000002,-6.77 -6.45,-9.72 c-6.41,-7.09 -13.8,-13.73 -22.92,-18 a45.55,45.55 0 0 0 -20.29,-4.34 h-0.07 l-1.1,0.06000000000000001 l-0.78,0.05000000000000001 l-0.78,0.08000000000000002 l-0.8300000000000001,0.08000000000000002 h0 c-0.8500000000000001,0.11000000000000001 -1.6900000000000002,0.24000000000000002 -2.5300000000000002,0.41000000000000003 a87.31,87.31 0 0 0 -18.55,-2.08 h-0.81 a9.5,9.5 0 0 0 -5.3,1.25 c-2.22,1.55 -2.5,4.33 -3.17,6.75 a18.73,18.73 0 0 1 -7.2,10 c-2.39,1.7200000000000002 -5.2,3 -7.48,4.8 s-4.06,4.5 -3.45,7.16 c0.51,2.23 2.59,3.89 5,4.9 c-0.29000000000000004,0.36000000000000004 -0.5900000000000001,0.7100000000000001 -0.8700000000000001,1.08 c0.47000000000000003,0.19000000000000003 1,0.36000000000000004 1.4300000000000002,0.5 c3,0.8900000000000001 6.23,1 9.27,1.81 a20.31,20.31 0 0 1 2.46,0.8300000000000001 a35.12,35.12 0 0 0 -4.11,16.52 a35.59,35.59 0 0 0 18.62,31.22 c0,0.3400000000000001 0,0.6700000000000002 0,1 c0.31000000000000005,10.44 -0.48000000000000004,23.14 -5.82,25.29 s-10.45,4.58 -13.6,6.15 l-1,0.53 c-0.8300000000000001,-0.38000000000000006 -1.6600000000000001,-0.78 -2.47,-1.2 c0,0 -4.25,-0.5 -3.51,2.74 c0,0 -12.85,-2 -19.9,3.49 s-18.62,16.95 -20.89,19.94 S587.5,432.17000106811525 587.5,432.17000106811525 s5.53,-7.73 3.14,-17.2 c0,0 -2.64,-11.42 -1.3800000000000001,-16 s4.53,-21.58 4.53,-21.58 s0.46,-17.94 -9.33,-26.17 s-16.6,-15 -12.82,-7 a111.46,111.46 0 0 0 5.54,10.71 s-23.41,5.5600000000000005 -15.1,14.24 s10.57,8.69 10.57,8.69 s-2.77,21.43 -3.2800000000000002,25.42 s-5,34.39 -5,34.39 s-0.25,14.46 2.27,16.7 c0,0 1.6500000000000001,9.31 12.08,9 c0,0 19.88,-0.5 25.42,-2.74 s24.66,-14.21 26.68,-13.46 a1.15,1.15 0 0 1 0.39000000000000007,0.26 a2.83,2.83 0 0 1 0.30000000000000004,0.30000000000000004 c-2,4.43 -6.74,19.47 -4.72,26.86 c0,0 -1.7600000000000002,20.93 8.81,27.66 c0,0 15.35,25.92 9.56,39.87 c-0.46,1.13 -0.8700000000000001,2.17 -1.25,3.18 c-8.79,-7.29 -22.2,-14 -42.68,-17.71 c-2.09,-0.38000000000000006 -4.17,-0.8400000000000001 -6.23,-1.34 c-5.82,-1.4100000000000001 -21.83,-2.7 -29.45,22.61 a111.36,111.36 0 0 1 -6.76,17.12 c-3,6.07 -6.33,14.77 -6.4,23.4 c-0.17,12.1 6.08,24.09 28.76,28.49 c0.25,9 1.28,19.72 4.36,27.43 c6.29,15.7 16.36,41.12 16.36,41.12 s12.08,25.92 12.84,36.38 c0.49000000000000005,6.85 1.21,15.83 0.7100000000000001,22 c0,0.38000000000000006 -0.06000000000000001,0.7400000000000001 -0.1,1.1 a26.52,26.52 0 0 1 -3.38,3.07 c-1.7600000000000002,1 -7.55,7.23 -7.55,8.72 a26.64,26.64 0 0 0 0.38000000000000006,4.26 c-2.74,2.39 -4.24,5 -4.24,7.6 c0,13.52 38.37,24.48 85.7,24.48 s85.69,-11 85.69,-24.48 c0,-12.34 -32,-22.54 -73.58,-24.22 c8.67,-3.46 16.37,-7.09 19.56,-10 a4.68,4.68 0 0 0 1.51,-2.06 l-8.05,-18.69 s-0.6300000000000001,0.14 -1.56,0.41000000000000003 l-0.56,-0.8400000000000001 c-3.58,-5.45 -10.47,-16.31 -10.47,-19.26 c0,-1.09 -1.82,-8.06 -4.46,-17.61 V646.6300010681152 c26.26,4 60.1,-1.44 60.1,-1.44 l0.15000000000000002,-0.08000000000000002 h0.6600000000000001 v-0.36000000000000004 c4.55,-2.52 27.31,-15.85 34.06,-33.53 c2,-5.16 -0.49000000000000005,-12.55 -5.44,-20.45 c3.46,-8.59 12,-30.78 11.15,-39.63 c0,-0.47000000000000003 -0.06000000000000001,-1 -0.06000000000000001,-1.52 a26.12,26.12 0 0 0 0.1,-2.72 c1,-13 9,-36.75 9,-36.75 S803.98,509.74000106811525 803.88,509.1400010681152 zm-170,-57.76 c1.82,3.2 3.77,7.29 4.54,8.95 h0 S635.76,455.43000106811525 633.93,451.38000106811523 zm1.9,280.1 l-0.19000000000000003,0.07 l0,-1 a59.38,59.38 0 0 1 0.19000000000000003,-7.82 a9.16,9.16 0 0 0 -0.8600000000000001,-4.06 a96,96 0 0 1 -6.13,-24.13 c-1,-8.72 -1.83,-18.23 -1.31,-20.65 c0.78,-3.71 1.42,-31.81 0.45,-45.66 l15.48,3.48 l18,36.7 s11.58,17.92 15.17,32.06 V714.6300010681152 a34.6,34.6 0 0 1 -5.41,11.74 c-2.39,3.27 -4.72,6.58 -6.88,10 c-0.6600000000000001,1.06 -1.3900000000000001,2.15 -2.12,3.17 c-0.24000000000000002,0 -12.07,0.6900000000000002 -14.08,2.91 c-1.24,1.37 -3.4,3.5300000000000002 -3.7600000000000002,5.7 l-0.51,0.08000000000000002 C641.5,741.3200010681153 635.83,731.4800010681153 635.83,731.4800010681153 z" fill="url(#c24143ca-a0c1-48a5-a3b5-0343775bf348)" id="svg_20"/><path d="M572.43,331.1500010681152 l-37.61,-22.86 a5.14,5.14 0 0 0 -7.63,4.48 V357.23000106811526 a5.14,5.14 0 0 0 7.63,4.48 l37.61,-21.58 A5.15,5.15 0 0 0 572.43,331.1500010681152 zm28.28,3.85 a53,53 0 1 0 -53,53 A53,53 0 0 0 600.71,335.00000106811524 zm-95.74,0 a42.74,42.74 0 1 1 42.74,42.74 A42.73,42.73 0 0 1 504.97,335.00000106811524 z" fill="#ffdb77" id="svg_19" class="" fill-opacity="1" opacity="1"/><path d="M711.93,718.6300010681152 l-4,13 l-17,14.75 l-25,7.18 s-11.75,-6.43 -7.75,-7.68 c1.11,-0.35000000000000003 2.43,-1.62 3.77,-3.2800000000000002 c-1.4,5.1 9.73,-1.47 9.73,-1.47 s28.75,-20.5 31.75,-22.75 a22.61,22.61 0 0 1 6.4,-2.93 C711.08,717.4000010681152 711.93,718.6300010681152 711.93,718.6300010681152 z" opacity="0.1" id="svg_21"/><path d="M711.93,718.6300010681152 l-4,13 l-17,14.75 l-25,7.18 s-11.75,-6.43 -7.75,-7.68 c1.11,-0.35000000000000003 2.43,-1.62 3.77,-3.2800000000000002 a50,50 0 0 0 3.34,-4.82 c2.14,-3.44 4.46,-6.76 6.83,-10 a36,36 0 0 0 6.3100000000000005,-16.61 c1.75,-13.75 -16,-41.5 -16,-41.5 l-32.25,-66.25 l45,5.5 s24.25,83.25 24.25,87.25 c0,3 6.84,13.85 10.4,19.32 C711.08,717.4000010681152 711.93,718.6300010681152 711.93,718.6300010681152 z" fill="#fdc2cc" id="svg_22"/><ellipse cx="686.969970703125" cy="771.0499877929688" rx="85.12000274658203" ry="24.549999237060547" fill="#5f5d7e" id="svg_23"/><path d="M719.93,734.6300010681152 a4.8,4.8 0 0 1 -1.5,2.07 c-6.18,5.67 -29.29,14.1 -43.57,18.68 A101.11,101.11 0 0 1 663.43,758.6300010681152 c-3.5,0.25 -10.75,-2 -15.75,-5.07 s-0.5,-7.43 1.52,-9.68 s14,-2.92 14,-2.92 c-5.75,9.57 8.49,1.17 8.49,1.17 s28.75,-20.5 31.75,-22.75 s8.5,-3.5 8.5,-3.5 z" fill="#ffdb77" id="svg_24" class="" fill-opacity="1"/><path d="M719.93,734.6300010681152 a4.8,4.8 0 0 1 -1.5,2.07 c-6.18,5.67 -29.29,14.1 -43.57,18.68 A101.11,101.11 0 0 1 663.43,758.6300010681152 c-3.5,0.25 -10.75,-2 -15.75,-5.07 s-0.5,-7.43 1.52,-9.68 s14,-2.92 14,-2.92 c-5.75,9.57 8.49,1.17 8.49,1.17 s28.75,-20.5 31.75,-22.75 s8.5,-3.5 8.5,-3.5 z" opacity="0.3" id="svg_25" class="selected" fill-opacity="1" fill="#ceab4c" transform="translate(-0.4166666567325592,-0.4166666567325592) "/><path d="M718.43,736.7200010681153 c-6.18,5.67 -29.29,14.1 -43.57,18.68 C687.8,744.4400010681152 709.5,738.7100010681153 718.43,736.7200010681153 z" opacity="0.1" id="svg_26"/><ellipse cx="686.969970703125" cy="763.1400146484375" rx="17.030000686645508" ry="4.909999847412109" opacity="0.1" id="svg_27"/><rect x="677.5" y="633.6400146484375" width="17.5" height="129.5" fill="#5f5d7e" id="svg_28"/><path d="M695,640.0600010681152 v15 c-3.5,-1.08 -11.49,-5.63 -17.5,-9.21 V633.6300010681152 h3.6500000000000004 z" opacity="0.1" id="svg_29"/><path d="M653.77,577.2600010681152 s57.78,-14.870000000000001 72.16,-26 s70.85,41.24 63.39,61 s-34.62,34.07 -34.62,34.07 s-75.11,12.22 -87.9,-13.27 S653.77,577.2600010681152 653.77,577.2600010681152 z" fill="#474157" id="svg_30"/><path d="M653.77,577.2600010681152 s57.78,-14.870000000000001 72.16,-26 s70.85,41.24 63.39,61 s-34.62,34.07 -34.62,34.07 s-75.11,12.22 -87.9,-13.27 S653.77,577.2600010681152 653.77,577.2600010681152 z" opacity="0.1" id="svg_31"/><path d="M648.77,571.2600010681152 s57.78,-14.870000000000001 72.16,-26 s70.85,41.24 63.39,61 s-34.62,34.07 -34.62,34.07 s-75.11,12.22 -87.9,-13.27 S648.77,571.2600010681152 648.77,571.2600010681152 z" fill="#474157" id="svg_32"/><path d="M595.18,434.9000010681152 L588.93,432.63000106811523 s5.5,-7.75 3.13,-17.25 c0,0 -2.63,-11.46 -1.3800000000000001,-16.1 s4.5,-21.65 4.5,-21.65 s0.46,-18 -9.27,-26.25 s-16.48,-15 -12.73,-7 a111.4,111.4 0 0 0 5.5,10.75 s-23.25,5.57 -15,14.29 s10.5,8.71 10.5,8.71 s-2.75,21.5 -3.25,25.5 s-5,34.5 -5,34.5 s-0.25,14.5 2.25,16.75 a11.31,11.31 0 0 0 12,9 C581.96,463.85000106811526 603.18,440.4000010681152 595.18,434.9000010681152 z" fill="#fdc2cc" id="svg_33" class=""/><path d="M746.18,388.9000010681152 v14 L731.68,407.63000106811523 l-24.7,18.18 L700.43,430.63000106811523 l-29.25,-11.75 l-18.5,-19.5 s0.9,-0.49000000000000005 2.46,-1.3 l1,-0.53 c3.13,-1.57 8.06,-4 13.51,-6.17 s6.09,-14.89 5.78,-25.37 l0,-1 c-0.25,-7.35 -1,-13.36 -1,-13.36 s3.05,-0.5800000000000001 7.49,-1.24 c12.31,-1.83 35.28,-4.3 33.26,3.24 a17.37,17.37 0 0 0 0,7.79 c0.06000000000000001,0.28 0.12000000000000001,0.5700000000000001 0.19000000000000003,0.8500000000000001 c2.08,9.09 8.52,18.61 8.52,18.61 l20,7.2 l0.56,0.2 z" fill="#fdc2cc" id="svg_34"/><path d="M746.18,393.1500010681152 v-4.25 a14,14 0 0 1 4.75,0 c1.75,0.5 5.07,5.75 6.57,6.25 s10.68,34.75 9.68,37.75 S756.73,503.63000106811523 756.73,503.63000106811523 l-19.05,21 l-3.75,-57.75 L746.18,432.63000106811523 z" fill="#fdc2cc" id="svg_35"/><path d="M647.43,550.4000010681152 s-17.41,3.75 -15.2,9.25 s11.95,5.75 11.95,5.75 z" fill="#fdc2cc" id="svg_36"/><path d="M671.68,439.35000106811526 l-13.25,28.55 l-15.75,11.5 L639.93,461.63000106811523 s-5.32,-11.75 -7.61,-13.74 a1.15,1.15 0 0 0 -0.39000000000000007,-0.26 c-2,-0.7500000000000001 -21,11.25 -26.5,13.5 s-25.25,2.75 -25.25,2.75 L588.93,432.63000106811523 s17.5,-6.5 19.75,-9.5 s13.75,-14.5 20.75,-20 S649.2,399.63000106811523 649.2,399.63000106811523 l0.2,0.08000000000000002 l3.2800000000000002,1.42 l9.5,23.25 z" fill="#fdc2cc" id="svg_37" class=""/><path d="M636.93,724.1500010681152 a59.64,59.64 0 0 0 -0.19000000000000003,7.84 c0.07,2.79 0.19000000000000003,5.16 0.19000000000000003,5.16 l-5.75,12 s-19.75,6.5 -16.5,3.75 c1.13,-0.9500000000000001 1.71,-3.42 2,-6.69 c0.49000000000000005,-6.18 -0.22000000000000003,-15.19 -0.7100000000000001,-22.06 c-0.7500000000000001,-10.5 -12.75,-36.5 -12.75,-36.5 s-10,-25.5 -16.25,-41.25 s-4,-44.25 -4,-44.25 s1,-21.5 5.5,-28 s22,-8.75 22,-8.75 L618.68,592.6300010681152 s6.75,25.5 9.25,29.25 s1.75,48.5 0.7500000000000001,53.25 c-0.51,2.43 0.35000000000000003,12 1.31,20.72 a97.31,97.31 0 0 0 6.08,24.2 A9.24,9.24 0 0 1 636.93,724.1500010681152 z" fill="#fdc2cc" id="svg_38"/><path d="M636.93,737.1500010681152 l-5.75,12 s-19.75,6.5 -16.5,3.75 c1.13,-0.9500000000000001 1.71,-3.42 2,-6.69 c0.7100000000000001,-0.7100000000000001 1.47,-1.49 2.25,-2.29 a50.49,50.49 0 0 1 17.85,-11.93 h0 C636.81,734.7800010681152 636.93,737.1500010681152 636.93,737.1500010681152 z" opacity="0.1" id="svg_39"/><path d="M645.95,755.0100010681152 a0.5900000000000001,0.5900000000000001 0 0 1 0,0.14 c-1,4.75 -17.5,11.25 -17.5,11.25 s-10.5,1.75 -16.5,3.25 a4.15,4.15 0 0 1 -1.4100000000000001,0.13 c-4.63,-0.35000000000000003 -4.84,-9.26 -4.84,-10.63 s5.75,-7.75 7.5,-8.75 a53.63,53.63 0 0 0 5.5600000000000005,-5.33 a51.6,51.6 0 0 1 18.22,-12.17 h0 S646.75,750.0800010681153 645.95,755.0100010681152 z" fill="#ffdb77" id="svg_40" class="" fill-opacity="1"/><path d="M645.0409080505372,755.7675768184662 a0.5900000000000004,0.5900000000000004 0 0 1 0,0.14 c-1,4.75 -17.5,11.25 -17.5,11.25 s-10.5,1.75 -16.5,3.25 a4.15,4.15 0 0 1 -1.4100000000000001,0.13 c-4.63,-0.3500000000000002 -4.84,-9.26 -4.84,-10.63 s5.75,-7.75 7.5,-8.75 a53,53 0 0 0 5.6400000000000015,-5.41 a50.57,50.57 0 0 1 17.86,-12 l0.28,-0.11000000000000006 S645.8409080505371,750.8375768184662 645.0409080505372,755.7675768184662 z" opacity="0.3" id="svg_41" class="" fill-opacity="1" fill="#ceab4c"/><path d="M645.95,755.0100010681152 a0.5900000000000001,0.5900000000000001 0 0 1 0,0.14 c-1,4.75 -17.5,11.25 -17.5,11.25 s-10.5,1.75 -16.5,3.25 a4.15,4.15 0 0 1 -1.4100000000000001,0.13 c5.44,-3.73 18.63,-12.68 20.41,-12.88 S641.5,754.1800010681152 645.95,755.0100010681152 z" opacity="0.1" id="svg_42"/><path d="M715.41,362.29000106811526 c-6.18,5.09 -11.86,4.36 -20.49,4.36 c-6.24,0 -14.35,2.19 -19.46,-0.6200000000000001 c-0.21000000000000002,-7.8100000000000005 -1,-14.38 -1,-14.38 s43.5,-8.25 40.75,2 A18.18,18.18 0 0 0 715.41,362.29000106811526 z" opacity="0.1" id="svg_43"/><path d="M728.43,333.69000106811524 a35.75,35.75 0 0 1 -35.75,35.75 c-0.92,0 -1.84,0 -2.74,-0.1 h0 a35.75,35.75 0 1 1 38.5,-35.65 z" fill="#fdc2cc" id="svg_44"/><path d="M662.18,424.4000010681152 l9.5,15 l-13.25,28.55 l-15.75,11.5 L639.93,461.63000106811523 s-5.32,-11.75 -7.61,-13.74 c0.6600000000000001,-1.61 1.11,-2.35 1.11,-1.7600000000000002 c0,2.5 6.15,13.75 6.15,13.75 c19,-6.5 13.1,-31.75 13.1,-31.75 s-2.36,-22.5 -3.2800000000000002,-28.42 l3.2800000000000002,1.42 z" opacity="0.1" id="svg_45"/><path d="M746.18,388.9000010681152 v14 L731.68,407.63000106811523 l-24.7,18.18 L700.43,430.63000106811523 l-29.25,-11.75 l-18.5,-19.5 s0.9,-0.49000000000000005 2.46,-1.3 l1,-0.53 c12.870000000000001,5.85 26.8,8 36.75,8.77 a111,111 0 0 0 13.76,0.31000000000000005 C744.32,400.63000106811523 745.44,391.5300010681152 744.5,388.30000106811525 z" opacity="0.1" id="svg_46"/><path d="M756.93,615.6300010681152 a280.29,280.29 0 0 1 -29,12.25 c-17.25,6.25 -55.25,-2 -60,-3.25 s-41.25,-15.75 -55.25,-21.25 s-17.5,-1 -20.75,-1.5 s-5.5,-6.75 -6,-8.5 s9,-17 14.25,-24.75 s21,-6.25 23.25,-6.75 s18,0 18,0 s-1,-5 4.75,-19 s-9.5,-40 -9.5,-40 c-10.5,-6.75 -8.75,-27.75 -8.75,-27.75 c-2.5,-9.25 5.5,-30.5 5.5,-28 s6.15,13.75 6.15,13.75 c19,-6.5 13.1,-31.75 13.1,-31.75 s-2.75,-26.25 -3.48,-29.5 s3.48,-2.75 3.48,-2.75 q1.22,0.6300000000000001 2.46,1.2 c13.16,6.2 27.56,8.46 37.78,9.24 a111,111 0 0 0 13.76,0.31000000000000005 c45.67,-7.37 37.58,-19.12 37.28,-19.54 l2.22,0.79 c16.5,12 11.5,51.75 11.5,51.75 L751.5,470.3000010681152 l-4.59,22.1 s16.25,98.5 17.75,103.5 S756.93,615.6300010681152 756.93,615.6300010681152 z" fill="#ffdb77" id="svg_47" class="" fill-opacity="1"/><path d="M635.18,570.6300010681152 c-1,0.7500000000000001 -12.25,24 -4,30.5 S635.18,570.6300010681152 635.18,570.6300010681152 z" opacity="0.1" id="svg_48"/><path d="M643.18,573.9000010681152 c0.25,0.7500000000000001 23.5,37.75 36.25,40.75 z" opacity="0.1" id="svg_49"/><path d="M699.19,281.11000106811525 l-3.72,0.79 a25.07,25.07 0 0 1 3.14,-0.93 z" opacity="0.1" id="svg_50"/><path d="M755.21,440.63000106811523 l-7,29.65 a36.22,36.22 0 0 1 -9.72,-6.51 c-2.23,-2.12 -4.23,-4.55 -7.1,-5.94 c-3.6900000000000004,-1.79 -8.14,-1.55 -12.33,-1.7000000000000002 a59.32,59.32 0 0 1 -15.42,-2.64 a10.88,10.88 0 0 1 -4,-1.94 c-2.38,-2.1 -2.22,-5.49 -2,-8.45 a129.57,129.57 0 0 0 0.15000000000000002,-17.29 c-0.06000000000000001,-1.08 -0.14,-2.16 -0.23,-3.24 c-0.4,-4.83 -1.7000000000000002,-10.43 -6.640000000000001,-12.5 c-2.54,-1 -5.57,-0.92 -8,-2.13 a6.61,6.61 0 0 1 -1,-0.6200000000000001 c-3.6,-2.52 -3.93,-7.57 -3.79,-11.82 q0.32000000000000006,-8.76 0.6100000000000001,-17.53 a50.94,50.94 0 0 0 -0.19000000000000003,-8.65 h0 a19.21,19.21 0 0 0 -1.56,-5.52 c-2.17,-4.640000000000001 -6.69,-8.51 -7.5,-13.41 a5.43,5.43 0 0 1 -0.09000000000000002,-0.6900000000000002 c-0.42000000000000004,-4.38 2.34,-8.46 3.31,-12.77 c1.94,-8.67 -4.58,-18.17 -14.17,-20.66 c-3,-0.78 -6.22,-0.93 -9.21,-1.82 a14.79,14.79 0 0 1 -1.4100000000000001,-0.5 c7.24,-9.66 19.65,-16 33.74,-16 c22.33,0 40.44,16 40.44,35.75 c0,11.2 -5.83,21.19 -14.94,27.75 c0.06000000000000001,0.28 0.13,0.5700000000000001 0.21000000000000002,0.8500000000000001 c2.35,9.09 9.64,18.61 9.64,18.61 l22.64,7.2 l2.52,0.8 C760.87,400.9000010681152 755.21,440.63000106811523 755.21,440.63000106811523 z" opacity="0.1" id="svg_51"/><path d="M767.5,469.35000106811526 c-0.22000000000000003,0 -0.43000000000000005,-0.05000000000000001 -0.6400000000000001,-0.09000000000000002 A1.33,1.33 0 0 1 767.5,469.35000106811526 z" opacity="0.1" id="svg_52"/><path d="M690.18,280.12000106811524 a86,86 0 0 0 -19.08,-2.23 c-2.09,0 -4.33,0.11000000000000001 -6,1.26 c-2.21,1.55 -2.49,4.35 -3.15,6.77 a18.78,18.78 0 0 1 -7.15,10 c-2.37,1.73 -5.16,3 -7.43,4.82 s-4,4.52 -3.43,7.18 S647.5,312.63000106811523 650.5,313.48000106811526 s6.19,1 9.21,1.82 c9.59,2.49 16.1,12 14.16,20.65 c-1,4.3100000000000005 -3.73,8.39 -3.31,12.77 c0.49000000000000005,5.23 5.32,9.26 7.59,14.11 c2.07,4.42 1.9300000000000002,9.38 1.77,14.16 l-0.6100000000000001,17.54 c-0.16000000000000003,4.62 0.24000000000000002,10.18 4.8,12.44 c2.44,1.2 5.48,1.07 8,2.13 c4.94,2.06 6.24,7.67 6.640000000000001,12.49 a129.1,129.1 0 0 1 0.08000000000000002,20.53 c-0.23,3 -0.39000000000000007,6.35 2,8.45 a10.72,10.72 0 0 0 4,1.94 a59.32,59.32 0 0 0 15.42,2.64 c4.2,0.16000000000000003 8.64,-0.08000000000000002 12.33,1.7000000000000002 c2.87,1.3900000000000001 4.87,3.83 7.1,5.94 a39.24,39.24 0 0 0 23.18,10.15 c1.85,0.16000000000000003 3.95,0.12000000000000001 5.24,-1.07 s0.53,-3.7600000000000002 -1.31,-3.6100000000000003 a8.89,8.89 0 0 0 8.42,-3.22 a7.1,7.1 0 0 0 0,-8.17 c-2.09,-3 -6.53,-5 -6.77,-8.56 c-0.13,-2 1.2,-3.81 2.24,-5.59 a23.51,23.51 0 0 0 -3.64,-28 c-4.69,-4.85 -11.72,-8.53 -13.36,-14.75 c-1.09,-4.16 0.56,-8.53 -0.07,-12.76 c-1,-7 -7.93,-12 -11.74,-18.24 s-4.48,-13.79 -3.51,-20.89 s3.43,-14 5.43,-20.9 c1.49,-5.15 2.72,-10.620000000000001 1.06,-15.73 c-1.19,-3.63 -3.75,-6.78 -6.41,-9.75 c-6.37,-7.11 -13.7,-13.77 -22.76,-18 s-20.1,-5.87 -29.72,-2.74 " fill="#474157" id="svg_53"/><path d="M690.18,280.12000106811524 a86,86 0 0 0 -19.08,-2.23 c-2.09,0 -4.33,0.11000000000000001 -6,1.26 c-2.21,1.55 -2.49,4.35 -3.15,6.77 a18.78,18.78 0 0 1 -7.15,10 c-2.37,1.73 -5.16,3 -7.43,4.82 s-4,4.52 -3.43,7.18 S647.5,312.63000106811523 650.5,313.48000106811526 s6.19,1 9.21,1.82 c9.59,2.49 16.1,12 14.16,20.65 c-1,4.3100000000000005 -3.73,8.39 -3.31,12.77 c0.49000000000000005,5.23 5.32,9.26 7.59,14.11 c2.07,4.42 1.9300000000000002,9.38 1.77,14.16 l-0.6100000000000001,17.54 c-0.16000000000000003,4.62 0.24000000000000002,10.18 4.8,12.44 c2.44,1.2 5.48,1.07 8,2.13 c4.94,2.06 6.24,7.67 6.640000000000001,12.49 a129.1,129.1 0 0 1 0.08000000000000002,20.53 c-0.23,3 -0.39000000000000007,6.35 2,8.45 a10.72,10.72 0 0 0 4,1.94 a59.32,59.32 0 0 0 15.42,2.64 c4.2,0.16000000000000003 8.64,-0.08000000000000002 12.33,1.7000000000000002 c2.87,1.3900000000000001 4.87,3.83 7.1,5.94 a39.24,39.24 0 0 0 23.18,10.15 c1.85,0.16000000000000003 3.95,0.12000000000000001 5.24,-1.07 s0.53,-3.7600000000000002 -1.31,-3.6100000000000003 a8.89,8.89 0 0 0 8.42,-3.22 a7.1,7.1 0 0 0 0,-8.17 c-2.09,-3 -6.53,-5 -6.77,-8.56 c-0.13,-2 1.2,-3.81 2.24,-5.59 a23.51,23.51 0 0 0 -3.64,-28 c-4.69,-4.85 -11.72,-8.53 -13.36,-14.75 c-1.09,-4.16 0.56,-8.53 -0.07,-12.76 c-1,-7 -7.93,-12 -11.74,-18.24 s-4.48,-13.79 -3.51,-20.89 s3.43,-14 5.43,-20.9 c1.49,-5.15 2.72,-10.620000000000001 1.06,-15.73 c-1.19,-3.63 -3.75,-6.78 -6.41,-9.75 c-6.37,-7.11 -13.7,-13.77 -22.76,-18 s-20.1,-5.87 -29.72,-2.74 " opacity="0.1" id="svg_54" class=""/><path d="M636.68,502.9000010681152 s8.5,3.25 17.5,-5.75 S636.68,502.9000010681152 636.68,502.9000010681152 z" opacity="0.1" id="svg_55"/><g opacity="0.1" id="svg_56"><path d="M693.94,279.9700010681152 a35.56,35.56 0 0 1 5,-0.6300000000000001 a37.93,37.93 0 0 0 -7,0.22000000000000003 z" id="svg_57"/><path d="M744.08,462.7900010681152 c-2.24,-2.11 -4.23,-4.55 -7.11,-5.94 c-3.68,-1.78 -8.13,-1.54 -12.33,-1.7000000000000002 a59,59 0 0 1 -15.42,-2.64 a10.72,10.72 0 0 1 -4,-1.94 c-2.38,-2.1 -2.21,-5.48 -2,-8.45 a129.1,129.1 0 0 0 -0.08000000000000002,-20.53 c-0.41000000000000003,-4.82 -1.7000000000000002,-10.43 -6.65,-12.49 c-2.5300000000000002,-1.06 -5.5600000000000005,-0.93 -8,-2.13 c-4.5600000000000005,-2.26 -5,-7.82 -4.8100000000000005,-12.44 q0.31000000000000005,-8.77 0.6100000000000001,-17.53 c0.17,-4.79 0.30000000000000004,-9.75 -1.77,-14.17 c-2.27,-4.85 -7.1,-8.870000000000001 -7.59,-14.11 c-0.41000000000000003,-4.37 2.35,-8.46 3.3200000000000003,-12.77 c1.94,-8.67 -4.58,-18.16 -14.17,-20.65 c-3,-0.78 -6.22,-0.9400000000000001 -9.21,-1.82 s-5.890000000000001,-2.7800000000000002 -6.51,-5.5 s1.15,-5.36 3.42,-7.19 s5.06,-3.09 7.44,-4.82 a18.71,18.71 0 0 0 7.14,-10 c0.6700000000000002,-2.42 1,-5.21 3.15,-6.77 a8,8 0 0 1 4.1,-1.2 c-0.8900000000000001,0 -1.78,-0.05000000000000001 -2.66,-0.05000000000000001 c-2.09,0 -4.33,0.11000000000000001 -6,1.25 c-2.21,1.56 -2.49,4.35 -3.15,6.77 a18.78,18.78 0 0 1 -7.15,10 c-2.37,1.73 -5.16,3 -7.43,4.82 s-4,4.52 -3.43,7.19 s3.5300000000000002,4.61 6.52,5.5 s6.19,1 9.21,1.82 c9.59,2.49 16.1,12 14.16,20.65 c-1,4.3100000000000005 -3.73,8.4 -3.31,12.77 c0.49000000000000005,5.24 5.32,9.26 7.59,14.11 c2.07,4.42 1.94,9.38 1.77,14.17 q-0.31000000000000005,8.76 -0.6100000000000001,17.53 c-0.16000000000000003,4.62 0.24000000000000002,10.18 4.8,12.44 c2.44,1.2 5.48,1.07 8,2.13 c4.94,2.06 6.24,7.67 6.640000000000001,12.49 a129.1,129.1 0 0 1 0.08000000000000002,20.53 c-0.23,3 -0.39000000000000007,6.35 2,8.45 a10.72,10.72 0 0 0 4,1.94 a58.91,58.91 0 0 0 15.42,2.64 c4.2,0.16000000000000003 8.64,-0.08000000000000002 12.33,1.7000000000000002 c2.87,1.3900000000000001 4.87,3.83 7.11,5.94 a39.18,39.18 0 0 0 23.17,10.15 a10.71,10.71 0 0 0 3.35,-0.13 A39.11,39.11 0 0 1 744.08,462.7900010681152 z" id="svg_58"/></g><path d="M588.93,432.63000106811523 s-8,7.34 -6.83,10.34 S588.93,432.63000106811523 588.93,432.63000106811523 z" opacity="0.1" id="svg_59"/><path d="M596.35,526.9800010681153 c-5.77,-1.4100000000000001 -21.68,-2.71 -29.25,22.68 a112.32,112.32 0 0 1 -6.71,17.17 c-7.26,14.91 -16.64,45.57 24.61,52.32 l99,22.5 s53,6.5 56.5,4 s3,-8 3,-8 s-58.5,0 -70,-18 s-12,-42.5 -12,-42.5 s1.44,-37.83 -59,-48.82 C600.5,527.9500010681153 598.4,527.4800010681153 596.35,526.9800010681153 z" fill="#474157" id="svg_60"/><path d="M596.35,527.1500010681152 c-5.77,-1.4100000000000001 -21.68,-2.71 -29.25,22.69 a112.32,112.32 0 0 1 -6.71,17.17 c-7.26,14.9 -16.64,45.56 24.61,52.31 l99,22.5 s53,6.5 56.5,4 s3,-8 3,-8 s-58.5,0 -70,-18 s-12,-42.5 -12,-42.5 s1.44,-37.83 -59,-48.82 C600.5,528.1200010681152 598.4,527.6300010681152 596.35,527.1500010681152 z" opacity="0.1" id="svg_61"/><path d="M803.88,501.11000106811525 a15.29,15.29 0 0 0 -15.45,-12.92 c-14.24,0.26 -58.07,2.16 -78.43,15.46 c0,0 -15.5,10 -20,10 s-65.5,52 25,98.5 c0,0 48.5,13.8 67.5,-18.6 c0,0 13.5,-34.8 12.5,-46.85 s9,-44.55 9,-44.55 S803.98,501.76000106811523 803.88,501.11000106811525 z" fill="#474157" id="svg_62"/><path d="M803.88,509.87000106811524 c-1.1400000000000001,-7 -7.8,-12.06 -15.45,-11.93 c-14.24,0.24000000000000002 -58.07,2 -78.43,14.27 c0,0 -15.5,9.23 -20,9.23 s-65.5,48 25,90.93 c0,0 48.5,12.74 67.5,-17.17 c0,0 13.5,-32.13 12.5,-43.25 s9,-41.12 9,-41.12 S803.98,510.47000106811527 803.88,509.87000106811524 z" opacity="0.1" id="svg_63"/><rect x="739.5" y="612.1400146484375" width="16" height="34.06999969482422" fill="#5f5d7e" id="svg_64"/><ellipse cx="170.24000549316406" cy="470.7099914550781" rx="45.040000915527344" ry="2.890000104904175" opacity="0.1" id="svg_65"/><path d="M208.04000000000002,359.25000106811524 a17.18,17.18 0 0 0 -2.2800000000000002,4.29 c-0.14,0.38000000000000006 -0.28,0.8 -0.42000000000000004,1.21 a3.6900000000000004,3.6900000000000004 0 0 0 -0.79,-0.27 a11.34,11.34 0 0 0 -3.5700000000000003,-0.31000000000000005 c0,-0.46 0.06000000000000001,-1 0.07,-1.46 c0.15000000000000002,-5.27 -0.47000000000000003,-12.620000000000001 -5.5,-9.51 c-4.82,3 -1.3800000000000001,8 1.73,11.21 l0.8,0.78 c-2.84,2 -3.38,6.73 -3.85,11.64 s-4.640000000000001,10.29 -7.41,13.34 c-0.28,0.31000000000000005 -0.53,0.5900000000000001 -0.78,0.8500000000000001 a10.11,10.11 0 0 0 -8.05,-2.07 c-0.11000000000000001,-0.43000000000000005 -0.24000000000000002,-0.8800000000000001 -0.37000000000000005,-1.36 c-2.24,-8.08 -6.890000000000001,-22.09 -12.82,-25.16 l0.78,-1 c2.52,-3.3 5.36,-8.19 1.17,-9.45 s-4.57,4.25 -4.34,8.37 c0,0.52 0.08000000000000002,1 0.12000000000000001,1.46 a6.17,6.17 0 0 0 -4.38,2.14 l-0.6500000000000001,-0.7600000000000001 c-3.4,-4 -9.63,-10.37 -11.52,-5.5600000000000005 c-1.7600000000000002,4.48 3.73,10.29 7.59,13.66 l0.24000000000000002,0.21000000000000002 C151.22,382.0300010681152 162.5,390.63000106811523 168.62,394.35000106811526 l0.79,0.48000000000000004 c-8.4,9.9 -13.59,28.45 -13.59,28.45 l23.52,4.2 s15.6,-13.45 13.6,-26.09 l0.16000000000000003,0 c15.59,-3.12 19.13,-19.74 16.7,-29.61 l0.28,-0.11000000000000001 a17.74,17.74 0 0 0 7.22,-5.46 C221.66000000000003,360.1400010681152 212.5,353.30000106811525 208.04000000000002,359.25000106811524 z" fill="#ceab4c" id="svg_66" class="" fill-opacity="1"/><path d="M208.04000000000002,359.25000106811524 a17.18,17.18 0 0 0 -2.2800000000000002,4.29 c-0.14,0.38000000000000006 -0.28,0.8 -0.42000000000000004,1.21 a3.6900000000000004,3.6900000000000004 0 0 0 -0.79,-0.27 a11.34,11.34 0 0 0 -3.5700000000000003,-0.31000000000000005 c0,-0.46 0.06000000000000001,-1 0.07,-1.46 c0.15000000000000002,-5.27 -0.47000000000000003,-12.620000000000001 -5.5,-9.51 c-4.82,3 -1.3800000000000001,8 1.73,11.21 l0.8,0.78 c-2.84,2 -3.38,6.73 -3.85,11.64 s-4.640000000000001,10.29 -7.41,13.34 c-0.28,0.31000000000000005 -0.53,0.5900000000000001 -0.78,0.8500000000000001 a10.11,10.11 0 0 0 -8.05,-2.07 c-0.11000000000000001,-0.43000000000000005 -0.24000000000000002,-0.8800000000000001 -0.37000000000000005,-1.36 c-2.24,-8.08 -6.890000000000001,-22.09 -12.82,-25.16 l0.78,-1 c2.52,-3.3 5.36,-8.19 1.17,-9.45 s-4.57,4.25 -4.34,8.37 c0,0.52 0.08000000000000002,1 0.12000000000000001,1.46 a6.17,6.17 0 0 0 -4.38,2.14 l-0.6500000000000001,-0.7600000000000001 c-3.4,-4 -9.63,-10.37 -11.52,-5.5600000000000005 c-1.7600000000000002,4.48 3.73,10.29 7.59,13.66 l0.24000000000000002,0.21000000000000002 C151.22,382.0300010681152 162.5,390.63000106811523 168.62,394.35000106811526 l0.79,0.48000000000000004 c-8.4,9.9 -13.59,28.45 -13.59,28.45 l23.52,4.2 s15.6,-13.45 13.6,-26.09 l0.16000000000000003,0 c15.59,-3.12 19.13,-19.74 16.7,-29.61 l0.28,-0.11000000000000001 a17.74,17.74 0 0 0 7.22,-5.46 C221.66000000000003,360.1400010681152 212.5,353.30000106811525 208.04000000000002,359.25000106811524 z" opacity="0.1" id="svg_67" class="" transform="translate(0.4878048896789551,1.9512195587158203) "/><path d="M161.22000000000003,366.0300010681152 L158.5,374.0800010681152 s-1.53,-1.08 -3.46,-2.7800000000000002 c-3.8600000000000003,-3.37 -9.35,-9.18 -7.59,-13.66 c1.8900000000000001,-4.8100000000000005 8.12,1.54 11.52,5.5600000000000005 C160.31,364.79000106811526 161.22000000000003,366.0300010681152 161.22000000000003,366.0300010681152 z" fill="#ffdb77" id="svg_68" class="" fill-opacity="1"/><path d="M167.01999999999998,361.44000106811524 a38.89,38.89 0 0 1 -2.68,3.15 a42.22,42.22 0 0 1 -0.49000000000000005,-4.23 c-0.23,-4.12 0.21000000000000002,-9.59 4.34,-8.37 S169.5,358.1400010681152 167.01999999999998,361.44000106811524 z" fill="#ffdb77" id="svg_69" class="" fill-opacity="1"/><path d="M202.5,362.7100010681152 c-0.08000000000000002,2.6500000000000004 -0.3400000000000001,4.76 -0.3400000000000001,4.76 a34,34 0 0 1 -3.43,-3.06 c-3.11,-3.23 -6.55,-8.21 -1.73,-11.21 C202.01999999999998,350.0900010681152 202.64,357.44000106811524 202.5,362.7100010681152 z" fill="#ffdb77" id="svg_70" class="" fill-opacity="1"/><path d="M218.74,366.18000106811525 A17.74,17.74 0 0 1 211.5,371.63000106811523 a20.18,20.18 0 0 1 -2.42,0.8700000000000001 l-3.24,-4.55 a33.05,33.05 0 0 1 1.34,-4.42 a17.18,17.18 0 0 1 2.2800000000000002,-4.29 C213.95999999999998,353.30000106811525 223.10000000000002,360.1400010681152 218.74,366.18000106811525 z" fill="#ffdb77" id="svg_71" class="" fill-opacity="1"/><path d="M158.94,363.2000010681152 c1.37,1.59 2.2800000000000002,2.83 2.2800000000000002,2.83 L158.5,374.0800010681152 s-1.53,-1.08 -3.46,-2.7800000000000002 a15.75,15.75 0 0 1 3.1,-7.07 C158.38,363.86000106811525 158.67000000000002,363.51000106811523 158.94,363.2000010681152 z" opacity="0.1" id="svg_72"/><path d="M167.01999999999998,361.44000106811524 a38.89,38.89 0 0 1 -2.68,3.15 a42.22,42.22 0 0 1 -0.49000000000000005,-4.23 A5.46,5.46 0 0 1 167.01999999999998,361.44000106811524 z" opacity="0.1" id="svg_73"/><path d="M180.5,393.4000010681152 l-6.84,3 s-1.49,-0.7200000000000001 -3.64,-2.06 c-7.19,-4.43 -21.64,-15.56 -11.95,-28.68 s17.77,10.42 20.95,21.92 C180.02999999999997,391.0300010681152 180.5,393.4000010681152 180.5,393.4000010681152 z" fill="#ffdb77" id="svg_74" class="" fill-opacity="1"/><path d="M198.72000000000003,364.4100010681152 a5.57,5.57 0 0 1 3.77,-1.7000000000000002 c-0.08000000000000002,2.6500000000000004 -0.3400000000000001,4.76 -0.3400000000000001,4.76 A34,34 0 0 1 198.72000000000003,364.4100010681152 z" opacity="0.1" id="svg_75"/><path d="M211.5,371.63000106811523 a20.18,20.18 0 0 1 -2.42,0.8700000000000001 l-3.24,-4.55 a33.05,33.05 0 0 1 1.34,-4.42 C209.29000000000002,364.7700010681152 210.82999999999998,367.80000106811525 211.5,371.63000106811523 z" opacity="0.1" id="svg_76"/><path d="M194.5,401.36000106811525 l-1.15,0.2 c-22.93,3.49 -7.5600000000000005,-8.88 -7.5600000000000005,-8.88 s1,-0.9500000000000001 2.43,-2.51 c2.77,-3.05 6.93,-8.4 7.41,-13.34 c0.7200000000000001,-7.43 1.55,-14.4 10.32,-12.35 C214.60000000000002,366.49000106811525 216.25,397.01000106811523 194.5,401.36000106811525 z" fill="#ffdb77" id="svg_77" class="" fill-opacity="1"/><rect x="150.3000030517578" y="458.44000244140625" width="43.810001373291016" height="11.520000457763672" fill="#474157" id="svg_78"/><rect x="143.33999633789062" y="421" width="57.2400016784668" height="40.20000076293945" fill="#474157" id="svg_79"/><rect x="149.8800048828125" y="458.44000244140625" width="43.810001373291016" height="11.520000457763672" opacity="0.1" id="svg_80"/><rect x="143.16000366210938" y="421.010009765625" width="57.2400016784668" height="40.20000076293945" opacity="0.1" id="svg_81"/><rect x="153.17999267578125" y="458.44000244140625" width="43.810001373291016" height="11.520000457763672" fill="#474157" id="svg_82"/><path d="M179.06,387.63000106811523 c1,3.44 1.48,5.8100000000000005 1.48,5.8100000000000005 l-6.84,3 s-1.49,-0.7200000000000001 -3.64,-2.06 C172.74,390.9500010681152 175.76,388.38000106811523 179.06,387.63000106811523 z" opacity="0.1" id="svg_83"/><path d="M194.5,401.36000106811525 l-1.15,0.2 c-22.93,3.49 -7.5600000000000005,-8.88 -7.5600000000000005,-8.88 s1,-0.9500000000000001 2.43,-2.51 C192.5,393.63000106811523 194.31,397.4600010681152 194.5,401.36000106811525 z" opacity="0.1" id="svg_84"/><path d="M157.26,423.2800010681152 s12.84,-46 30.85,-31.8 s-7.33,36 -7.33,36 z" fill="#ffdb77" id="svg_85" class="" fill-opacity="1"/><circle cx="163.74000549316406" cy="372.8699951171875" r="1.440000057220459" opacity="0.1" id="svg_86"/><circle cx="163.6199951171875" cy="379.6000061035156" r="1.440000057220459" opacity="0.1" id="svg_87"/><circle cx="205.38999938964844" cy="374.19000244140625" r="1.440000057220459" opacity="0.1" id="svg_88"/><circle cx="171.77999877929688" cy="408.6400146484375" r="1.440000057220459" opacity="0.1" id="svg_89"/><circle cx="202.38999938964844" cy="385.3599853515625" r="1.440000057220459" opacity="0.1" id="svg_90"/><circle cx="187.50999450683594" cy="400.239990234375" r="1.440000057220459" opacity="0.1" id="svg_91"/><circle cx="168.66000366210938" cy="375.75" r="1.440000057220459" opacity="0.1" id="svg_92"/><circle cx="201.42999267578125" cy="378.5199890136719" r="1.440000057220459" opacity="0.1" id="svg_93"/><circle cx="196.50999450683594" cy="389.67999267578125" r="1.440000057220459" opacity="0.1" id="svg_94"/><circle cx="181.3800048828125" cy="407.55999755859375" r="1.440000057220459" opacity="0.1" id="svg_95"/><circle cx="178.25999450683594" cy="400.4800109863281" r="1.440000057220459" opacity="0.1" id="svg_96" class=""/><circle cx="170.82000732421875" cy="384.5199890136719" r="1.440000057220459" opacity="0.1" id="svg_97"/><rect x="153.17999267578125" y="458.44000244140625" width="43.810001373291016" height="4.210000038146973" opacity="0.1" id="svg_98"/><rect x="146.22000122070312" y="421" width="57.2400016784668" height="40.20000076293945" fill="#474157" id="svg_99"/><circle cx="183.3000030517578" cy="414.0400085449219" r="1.440000057220459" opacity="0.1" id="svg_100"/><circle cx="174.66000366210938" cy="415.8399963378906" r="1.440000057220459" opacity="0.1" id="svg_101"/><path d="M311.89,574.6300010681152 s7.13,9.33 -3.29,23.41 s-19,26 -15.56,34.76 c0,0 15.74,-26.16 28.55,-26.52 S325.98,590.3700010681152 311.89,574.6300010681152 z" fill="#ffdb77" id="svg_102" class="" fill-opacity="1"/><path d="M311.89,574.6300010681152 a11.49,11.49 0 0 1 1.46,2.92 c12.49,14.68 19.15,28.38 7.14,28.73 C309.3,606.6300010681152 295.88,626.6300010681152 292.66,631.6300010681152 c0.11000000000000001,0.39000000000000007 0.24000000000000002,0.78 0.38000000000000006,1.15 c0,0 15.74,-26.16 28.55,-26.52 S325.98,590.3700010681152 311.89,574.6300010681152 z" opacity="0.1" id="svg_103"/><path d="M325.15,586.5300010681152 c0,3.2800000000000002 -0.37000000000000005,5.94 -0.8200000000000001,5.94 s-0.8200000000000001,-2.66 -0.8200000000000001,-5.94 s0.46,-1.7400000000000002 0.91,-1.7400000000000002 S325.15,583.2400010681152 325.15,586.5300010681152 z" fill="#ffd037" id="svg_104"/><path d="M329.7,590.4500010681153 c-2.88,1.57 -5.39,2.52 -5.61,2.12 s1.94,-2 4.83,-3.5700000000000003 s1.7400000000000002,-0.43000000000000005 2,0 S332.59,588.8800010681152 329.7,590.4500010681153 z" fill="#ffd037" id="svg_105"/><path d="M274.2,574.6300010681152 s-7.13,9.33 3.29,23.41 s19,26 15.55,34.76 c0,0 -15.73,-26.16 -28.54,-26.52 S260.11,590.3700010681152 274.2,574.6300010681152 z" fill="#ffdb77" id="svg_106" class="" fill-opacity="1"/><path d="M274.2,574.6300010681152 a11.49,11.49 0 0 0 -1.46,2.92 c-12.49,14.68 -19.15,28.38 -7.14,28.73 C276.79,606.6300010681152 290.21,626.6300010681152 293.43,631.6300010681152 a11.1,11.1 0 0 1 -0.39000000000000007,1.15 S277.31,606.6300010681152 264.5,606.2900010681152 S260.11,590.3700010681152 274.2,574.6300010681152 z" opacity="0.1" id="svg_107"/><path d="M260.94,586.5300010681152 c0,3.2800000000000002 0.37000000000000005,5.94 0.8200000000000001,5.94 s0.8200000000000001,-2.66 0.8200000000000001,-5.94 s-0.46,-1.7400000000000002 -0.91,-1.7400000000000002 S260.94,583.2400010681152 260.94,586.5300010681152 z" fill="#ffd037" id="svg_108"/><path d="M256.39,590.4500010681153 c2.88,1.57 5.39,2.52 5.61,2.12 s-1.94,-2 -4.83,-3.5700000000000003 s-1.7400000000000002,-0.43000000000000005 -2,0 S253.5,588.8800010681152 256.39,590.4500010681153 z" fill="#ffd037" id="svg_109"/><ellipse cx="293.0400085449219" cy="692.739990234375" rx="74.5999984741211" ry="11.449999809265137" fill="#ceab4c" opacity="0.1" id="svg_110" class="" fill-opacity="1"/><path d="M331.44,620.2400010681152 l-0.36000000000000004,2.91 l-0.5,4.12 l-0.2,1.71 l-0.51,4.12 l-0.21000000000000002,1.7200000000000002 l-0.5,4.11 L323.5,685.7300010681153 c-0.51,4.18 -7.34,7.43 -15.57,7.43 H278.21 c-8.24,0 -15,-3.25 -15.56,-7.43 l-5.72,-46.8 l-0.5,-4.11 l-0.21000000000000002,-1.7200000000000002 l-0.51,-4.12 l-0.2,-1.71 l-0.5,-4.12 l-0.36000000000000004,-2.91 c-0.29000000000000004,-2.36 3.4,-4.36 8.07,-4.36 h60.66 C328.03,615.8800010681152 331.73,617.8800010681152 331.44,620.2400010681152 z" fill="#65617d" id="svg_111"/><polygon points="331.08 623.15 330.58 627.26 255.51 627.26 255.01 623.15 331.08 623.15" fill="#9d9cb5" id="svg_112"/><polygon points="330.38 628.98 329.88 633.1 256.22 633.1 255.71 628.98 330.38 628.98" fill="#9d9cb5" id="svg_113"/><polygon points="329.66 634.81 329.16 638.93 256.93 638.93 256.43 634.81 329.66 634.81" fill="#9d9cb5" id="svg_114"/></g></svg>